<svg width="23" height="23" viewBox="0 0 23 23" fill="none" xmlns="http://www.w3.org/2000/svg">
<path d="M9.34554 2.46473C5.64374 2.46473 2.64283 5.50468 2.64283 9.25465C2.64283 13.0046 5.64374 16.0446 9.34554 16.0446C13.0473 16.0446 16.0482 13.0046 16.0482 9.25465C16.0482 5.50468 13.0473 2.46473 9.34554 2.46473ZM0.4086 9.25465C0.4086 4.25469 4.4098 0.201416 9.34554 0.201416C14.2813 0.201416 18.2825 4.25469 18.2825 9.25465C18.2825 11.3468 17.582 13.2731 16.4056 14.8061L22.4237 20.9027C22.86 21.3446 22.86 22.0611 22.4237 22.5031C21.9875 22.945 21.2802 22.945 20.8439 22.5031L14.8257 16.4065C13.3124 17.5983 11.4108 18.3079 9.34554 18.3079C4.4098 18.3079 0.4086 14.2546 0.4086 9.25465Z" fill="rgba(242, 225, 166, 0.5)"/>
</svg>
